# xmcd CD database file
#
# Track frame offsets:
#	180
#	25937
#	60157
#	76345
#	95697
#	128992
#	158846
#	178117
#	210910
#
# Disc length: 3062 seconds
#
# Revision: 2
# Processed by: cddbd v1.4b41PL1 Copyright (c) Steve Scherf et al.
# Submitted via: Feurio! 1.60 - http://www.feurio.com
#
DISCID=6a0bf409,730bf409
DTITLE=Children Of No Return - Looking Back In Anger
DYEAR=1900
DGENRE=
TTITLE0=Sheryl
TTITLE1=Final Frontier
TTITLE2=My World
TTITLE3=Black Rain
TTITLE4=Soldiersong
TTITLE5=No Man´s Land
TTITLE6=Time
TTITLE7=Sarajevo
TTITLE8=Man In The Moon
EXTD=
EXTT0=
EXTT1=
EXTT2=
EXTT3=
EXTT4=
EXTT5=
EXTT6=
EXTT7=
EXTT8=
PLAYORDER=
